<svg width="99" height="107" viewBox="0 0 99 107" fill="none" xmlns="http://www.w3.org/2000/svg">
<g filter="url(#filter0_d_3_8)">
<path fill-rule="evenodd" clip-rule="evenodd" d="M45.1529 0L4 40.7647L24.5382 61.7556L4 83.2765L19.6497 99L41.0955 76.8706L55.0064 90.2647L95 49.5L77.0318 31.4471L41.0955 66.9706L14.4331 40.7647L45.1529 9.9L61.3822 26.2059L45.1529 41.9294L39.3567 36.1059L46.3121 29.1176L41.6752 24.4588L30.0828 36.1059L45.1529 51.8294L70.6561 26.2059L45.1529 0ZM13.8535 83.2765L30.6624 66.3882L36.4586 72.2118L19.6497 89.1L13.8535 83.2765ZM77.0318 40.7647L46.3121 72.2118L55.0064 80.9471L85.7261 49.5L77.0318 40.7647Z" fill="#FFC000"/>
</g>
<defs>
<filter id="filter0_d_3_8" x="0" y="0" width="99" height="107" filterUnits="userSpaceOnUse" color-interpolation-filters="sRGB">
<feFlood flood-opacity="0" result="BackgroundImageFix"/>
<feColorMatrix in="SourceAlpha" type="matrix" values="0 0 0 0 0 0 0 0 0 0 0 0 0 0 0 0 0 0 127 0" result="hardAlpha"/>
<feOffset dy="4"/>
<feGaussianBlur stdDeviation="2"/>
<feComposite in2="hardAlpha" operator="out"/>
<feColorMatrix type="matrix" values="0 0 0 0 0 0 0 0 0 0 0 0 0 0 0 0 0 0 0.25 0"/>
<feBlend mode="normal" in2="BackgroundImageFix" result="effect1_dropShadow_3_8"/>
<feBlend mode="normal" in="SourceGraphic" in2="effect1_dropShadow_3_8" result="shape"/>
</filter>
</defs>
</svg>
