<svg width="31" height="32" viewBox="0 0 31 32" fill="none" xmlns="http://www.w3.org/2000/svg">
<path d="M14.9999 0.166656C15.663 0.166656 16.2988 0.430049 16.7677 0.89889C17.2365 1.36773 17.4999 2.00362 17.4999 2.66666C17.4999 3.3297 17.2365 3.96558 16.7677 4.43442C16.2988 4.90326 15.663 5.16666 14.9999 5.16666H6.66658C6.44557 5.16666 6.23361 5.25445 6.07733 5.41073C5.92105 5.56701 5.83325 5.77898 5.83325 5.99999V26C5.83325 26.221 5.92105 26.433 6.07733 26.5892C6.23361 26.7455 6.44557 26.8333 6.66658 26.8333H14.1666C14.8296 26.8333 15.4655 27.0967 15.9344 27.5656C16.4032 28.0344 16.6666 28.6703 16.6666 29.3333C16.6666 29.9964 16.4032 30.6322 15.9344 31.1011C15.4655 31.5699 14.8296 31.8333 14.1666 31.8333H6.66658C5.11949 31.8333 3.63576 31.2187 2.5418 30.1248C1.44783 29.0308 0.833252 27.5471 0.833252 26V5.99999C0.833252 4.45289 1.44783 2.96916 2.5418 1.8752C3.63576 0.781238 5.11949 0.166656 6.66658 0.166656H14.9999ZM25.0999 9.51666L29.8149 14.2333C30.2831 14.7021 30.5461 15.3375 30.5461 16C30.5461 16.6625 30.2831 17.2979 29.8149 17.7667L25.1016 22.4833C24.6326 22.9523 23.9965 23.2158 23.3333 23.2158C22.67 23.2158 22.0339 22.9523 21.5649 22.4833C21.0959 22.0143 20.8325 21.3782 20.8325 20.715C20.8325 20.0517 21.0959 19.4156 21.5649 18.9467L22.0116 18.5H14.9999C14.3369 18.5 13.701 18.2366 13.2322 17.7678C12.7633 17.2989 12.4999 16.663 12.4999 16C12.4999 15.3369 12.7633 14.7011 13.2322 14.2322C13.701 13.7634 14.3369 13.5 14.9999 13.5H22.0116L21.5649 13.0533C21.3328 12.8211 21.1487 12.5454 21.0231 12.2421C20.8976 11.9387 20.833 11.6136 20.833 11.2852C20.8331 10.9569 20.8979 10.6318 21.0236 10.3285C21.1493 10.0252 21.3335 9.7496 21.5658 9.51749C21.798 9.28538 22.0736 9.10128 22.377 8.9757C22.6804 8.85013 23.0055 8.78553 23.3338 8.78561C23.6622 8.78569 23.9873 8.85043 24.2906 8.97615C24.5939 9.10187 24.8695 9.2861 25.1016 9.51832L25.0999 9.51666Z" fill="#FFC000"/>
</svg>
